# Blender v2.79 (sub 0) OBJ File: 'Coin.blend'
# www.blender.org
mtllib Coin.mtl
o Circle
v 0.000000 0.103225 -3.422059
v -2.419761 0.103225 -2.419761
v -3.422059 0.103225 0.000000
v -2.419761 0.103225 2.419761
v 0.000000 0.103225 3.422059
v 2.419761 0.103225 2.419760
v 3.422059 0.103225 -0.000000
v 2.419761 0.103225 -2.419761
v 0.000000 0.022950 -2.799691
v -1.979680 0.022950 -1.979680
v -2.799691 0.022950 0.000000
v -1.979680 0.022950 1.979680
v 0.000000 0.022950 2.799691
v 1.979681 0.022950 1.979680
v 2.799691 0.022950 -0.000000
v 1.979681 0.022950 -1.979680
v 0.000000 0.022941 -2.328880
v -1.646767 0.022941 -1.646767
v -2.328880 0.022941 0.000000
v -1.646767 0.022941 1.646767
v 0.000000 0.022941 2.328880
v 1.646767 0.022941 1.646767
v 2.328880 0.022941 -0.000000
v 1.646767 0.022941 -1.646767
v 0.000000 0.103213 -1.751105
v -1.238218 0.103213 -1.238218
v -1.751105 0.103213 0.000000
v -1.238218 0.103213 1.238218
v 0.000000 0.103213 1.751105
v 1.238219 0.103213 1.238218
v 1.751105 0.103213 -0.000000
v 1.238219 0.103213 -1.238218
v -0.066649 0.179487 -0.364116
v -0.619109 0.103213 1.494662
v -0.047567 0.179487 -0.381528
v 0.000000 -0.407633 -3.422059
v -2.419761 -0.407633 -2.419761
v -3.422059 -0.407633 0.000000
v -2.419761 -0.407633 2.419761
v 0.000000 -0.407633 3.422059
v 2.419761 -0.407633 2.419760
v 3.422059 -0.407633 -0.000000
v 2.419761 -0.407633 -2.419761
v 0.000000 -0.327358 -2.799691
v -1.979680 -0.327358 -1.979680
v -2.799691 -0.327358 0.000000
v -1.979680 -0.327358 1.979680
v 0.000000 -0.327358 2.799691
v 1.979681 -0.327358 1.979680
v 2.799691 -0.327358 -0.000000
v 1.979681 -0.327358 -1.979680
v 0.000000 -0.327349 -2.328880
v -1.646767 -0.327349 -1.646767
v -2.328880 -0.327349 0.000000
v -1.646767 -0.327349 1.646767
v 0.000000 -0.327349 2.328880
v 1.646767 -0.327349 1.646767
v 2.328880 -0.327349 -0.000000
v 1.646767 -0.327349 -1.646767
v 0.000000 -0.407621 -1.751105
v -1.238218 -0.407621 -1.238218
v -1.751105 -0.407621 0.000000
v -1.238218 -0.407621 1.238218
v 0.000000 -0.407621 1.751105
v 1.238219 -0.407621 1.238218
v 1.751105 -0.407621 -0.000000
v 1.238219 -0.407621 -1.238218
v -0.066649 -0.470936 -0.364116
v -0.619109 -0.407621 1.494662
v -0.047567 -0.470936 -0.381528
v 0.000000 0.034016 -3.646360
v 0.000000 -0.107380 -3.756603
v -2.656319 -0.107380 -2.656319
v -2.578366 0.034016 -2.578366
v -3.756603 -0.107380 0.000000
v -3.646361 0.034016 0.000000
v -2.656319 -0.107380 2.656319
v -2.578366 0.034016 2.578366
v 0.000000 -0.107380 3.756603
v 0.000000 0.034016 3.646361
v 2.656320 -0.107380 2.656319
v 2.578367 0.034016 2.578366
v 3.756603 -0.107380 -0.000000
v 3.646361 0.034016 -0.000000
v 2.656320 -0.107380 -2.656319
v 2.578367 0.034016 -2.578366
v 0.000000 -0.203036 -3.756603
v 0.000000 -0.336520 -3.652529
v -2.582728 -0.336520 -2.582728
v -2.656319 -0.203036 -2.656319
v -3.652529 -0.336520 0.000000
v -3.756603 -0.203036 0.000000
v -2.582728 -0.336520 2.582728
v -2.656319 -0.203036 2.656319
v 0.000000 -0.336520 3.652529
v 0.000000 -0.203036 3.756603
v 2.582728 -0.336520 2.582727
v 2.656320 -0.203036 2.656319
v 3.652529 -0.336520 -0.000000
v 3.756603 -0.203036 -0.000000
v 2.582728 -0.336520 -2.582728
v 2.656320 -0.203036 -2.656319
vn -0.0529 0.9904 -0.1277
vn 0.1277 0.9904 -0.0529
vn 0.0529 0.9904 0.1277
vn -0.0529 0.9904 0.1277
vn -0.1277 0.9904 -0.0529
vn 0.0529 0.9904 -0.1277
vn 0.1277 0.9904 0.0529
vn -0.1277 0.9904 0.0529
vn 0.1374 0.9889 0.0569
vn -0.0569 0.9889 0.1374
vn -0.1374 0.9889 -0.0569
vn 0.1374 0.9889 -0.0569
vn 0.0569 0.9889 0.1374
vn -0.1374 0.9889 0.0569
vn -0.0569 0.9889 -0.1374
vn 0.0569 0.9889 -0.1374
vn 0.0248 0.9995 0.0169
vn -0.9239 0.0000 -0.3827
vn 0.9239 0.0000 -0.3827
vn 0.3827 0.0000 0.9239
vn -0.9239 0.0000 0.3827
vn 0.3827 0.0000 -0.9239
vn 0.9239 0.0000 0.3827
vn -0.3827 0.0000 0.9239
vn -0.0529 -0.9904 -0.1277
vn 0.1277 -0.9904 -0.0529
vn 0.0529 -0.9904 0.1277
vn -0.0529 -0.9904 0.1277
vn -0.1277 -0.9904 -0.0529
vn 0.0529 -0.9904 -0.1277
vn 0.1277 -0.9904 0.0529
vn -0.1277 -0.9904 0.0529
vn 0.1374 -0.9889 0.0569
vn -0.0569 -0.9889 0.1374
vn -0.1374 -0.9889 -0.0569
vn 0.1374 -0.9889 -0.0569
vn 0.0569 -0.9889 0.1374
vn -0.1374 -0.9889 0.0569
vn -0.0569 -0.9889 -0.1374
vn 0.0569 -0.9889 -0.1374
vn 0.0206 -0.9997 0.0140
vn -0.3105 0.5845 -0.7496
vn -0.7496 0.5845 -0.3105
vn -0.7496 0.5845 0.3105
vn -0.3105 0.5845 0.7496
vn 0.3105 0.5845 0.7496
vn 0.7496 0.5845 0.3105
vn 0.7496 0.5845 -0.3105
vn 0.3105 0.5845 -0.7496
vn -0.3105 -0.5845 -0.7496
vn -0.7496 -0.5845 -0.3105
vn -0.7496 -0.5845 0.3105
vn -0.3105 -0.5845 0.7496
vn 0.3105 -0.5845 0.7496
vn 0.7496 -0.5845 0.3105
vn 0.7496 -0.5845 -0.3105
vn 0.3105 -0.5845 -0.7496
vn -0.3827 0.0000 -0.9239
vn -0.1212 -0.9485 0.2927
vn 0.2927 -0.9485 -0.1212
vn 0.1212 -0.9485 0.2927
vn -0.2927 -0.9485 -0.1212
vn -0.2927 -0.9485 0.1212
vn 0.2927 -0.9485 0.1212
vn -0.0000 1.0000 0.0000
vn -0.1212 -0.9485 -0.2927
vn -0.0000 -1.0000 0.0000
vn -0.2927 0.9485 -0.1212
vn 0.2927 0.9485 -0.1212
vn 0.1212 0.9485 0.2927
vn -0.2927 0.9485 0.1212
vn -0.1212 0.9485 -0.2927
vn 0.1212 0.9485 -0.2927
vn 0.2927 0.9485 0.1212
vn -0.1212 0.9485 0.2927
vn 0.1212 -0.9485 -0.2927
vn -0.0236 0.9996 -0.0161
vn -0.0196 -0.9997 -0.0134
usemtl Gold
s off
f 6//1 14//1 13//1 5//1
f 4//2 12//2 11//2 3//2
f 2//3 10//3 9//3 1//3
f 1//4 9//4 16//4 8//4
f 7//5 15//5 14//5 6//5
f 5//6 13//6 12//6 4//6
f 3//7 11//7 10//7 2//7
f 8//8 16//8 15//8 7//8
f 23//9 31//9 30//9 22//9
f 21//10 29//10 34//10 28//10 20//10
f 19//11 27//11 26//11 18//11
f 24//12 32//12 31//12 23//12
f 22//13 30//13 29//13 21//13
f 20//14 28//14 27//14 19//14
f 18//15 26//15 25//15 17//15
f 17//16 25//16 32//16 24//16
f 29//17 30//17 31//17 32//17 35//17 33//17 34//17
f 75//18 73//18 90//18 92//18
f 85//19 83//19 100//19 102//19
f 81//20 79//20 96//20 98//20
f 77//21 75//21 92//21 94//21
f 72//22 85//22 102//22 87//22
f 83//23 81//23 98//23 100//23
f 79//24 77//24 94//24 96//24
f 41//25 40//25 48//25 49//25
f 39//26 38//26 46//26 47//26
f 37//27 36//27 44//27 45//27
f 36//28 43//28 51//28 44//28
f 42//29 41//29 49//29 50//29
f 40//30 39//30 47//30 48//30
f 38//31 37//31 45//31 46//31
f 43//32 42//32 50//32 51//32
f 58//33 57//33 65//33 66//33
f 56//34 55//34 63//34 69//34 64//34
f 54//35 53//35 61//35 62//35
f 59//36 58//36 66//36 67//36
f 57//37 56//37 64//37 65//37
f 55//38 54//38 62//38 63//38
f 53//39 52//39 60//39 61//39
f 52//40 59//40 67//40 60//40
f 64//41 69//41 68//41 70//41 67//41 66//41 65//41
f 74//42 71//42 72//42 73//42
f 76//43 74//43 73//43 75//43
f 78//44 76//44 75//44 77//44
f 80//45 78//45 77//45 79//45
f 82//46 80//46 79//46 81//46
f 84//47 82//47 81//47 83//47
f 86//48 84//48 83//48 85//48
f 71//49 86//49 85//49 72//49
f 90//50 87//50 88//50 89//50
f 92//51 90//51 89//51 91//51
f 94//52 92//52 91//52 93//52
f 96//53 94//53 93//53 95//53
f 98//54 96//54 95//54 97//54
f 100//55 98//55 97//55 99//55
f 102//56 100//56 99//56 101//56
f 87//57 102//57 101//57 88//57
f 73//58 72//58 87//58 90//58
usemtl Gold_2
f 95//59 93//59 39//59 40//59
f 101//60 99//60 42//60 43//60
f 97//61 95//61 40//61 41//61
f 91//62 89//62 37//62 38//62
f 93//63 91//63 38//63 39//63
f 99//64 97//64 41//64 42//64
f 16//65 24//65 23//65 15//65
f 14//65 22//65 21//65 13//65
f 12//65 20//65 19//65 11//65
f 10//65 18//65 17//65 9//65
f 9//65 17//65 24//65 16//65
f 15//65 23//65 22//65 14//65
f 13//65 21//65 20//65 12//65
f 11//65 19//65 18//65 10//65
f 89//66 88//66 36//66 37//66
f 51//67 50//67 58//67 59//67
f 49//67 48//67 56//67 57//67
f 47//67 46//67 54//67 55//67
f 45//67 44//67 52//67 53//67
f 44//67 51//67 59//67 52//67
f 50//67 49//67 57//67 58//67
f 48//67 47//67 55//67 56//67
f 46//67 45//67 53//67 54//67
f 76//68 3//68 2//68 74//68
f 86//69 8//69 7//69 84//69
f 82//70 6//70 5//70 80//70
f 78//71 4//71 3//71 76//71
f 74//72 2//72 1//72 71//72
f 71//73 1//73 8//73 86//73
f 84//74 7//74 6//74 82//74
f 80//75 5//75 4//75 78//75
f 88//76 101//76 43//76 36//76
usemtl Gold_3
f 26//77 27//77 28//77 34//77 33//77 35//77 32//77 25//77
f 61//78 60//78 67//78 70//78 68//78 69//78 63//78 62//78
